<svg width="320" height="450" viewBox="0 0 320 450" fill="none" xmlns="http://www.w3.org/2000/svg">
<rect width="320" height="450" fill="#F6F6F6"/>
<path d="M159.173 222.379C168.705 222.379 176.958 218.961 183.702 212.216C190.446 205.472 193.864 197.221 193.864 187.689C193.864 178.159 190.446 169.907 183.701 163.161C176.956 156.419 168.704 153 159.173 153C149.641 153 141.389 156.419 134.646 163.162C127.902 169.906 124.482 178.158 124.482 187.689C124.482 197.221 127.902 205.474 134.647 212.217C141.392 218.96 149.644 222.379 159.173 222.379Z" fill="#070707"/>
<path d="M219.873 263.751C219.678 260.945 219.285 257.883 218.706 254.651C218.121 251.394 217.369 248.315 216.468 245.5C215.537 242.592 214.271 239.719 212.706 236.967C211.082 234.11 209.174 231.622 207.034 229.575C204.795 227.433 202.055 225.711 198.886 224.455C195.728 223.206 192.228 222.573 188.484 222.573C187.014 222.573 185.592 223.176 182.846 224.964C181.156 226.066 179.179 227.341 176.973 228.751C175.086 229.953 172.53 231.079 169.373 232.099C166.293 233.095 163.165 233.601 160.079 233.601C156.992 233.601 153.866 233.095 150.782 232.099C147.629 231.08 145.073 229.954 143.188 228.752C141.003 227.355 139.025 226.08 137.309 224.963C134.567 223.175 133.144 222.572 131.673 222.572C127.928 222.572 124.43 223.206 121.273 224.456C118.106 225.71 115.364 227.432 113.124 229.576C110.984 231.624 109.075 234.111 107.454 236.967C105.89 239.719 104.624 242.591 103.692 245.502C102.792 248.316 102.039 251.394 101.455 254.651C100.876 257.879 100.482 260.941 100.288 263.755C100.097 266.51 100 269.371 100 272.26C100 279.778 102.39 285.865 107.103 290.353C111.758 294.783 117.917 297.03 125.407 297.03H194.757C202.247 297.03 208.404 294.784 213.06 290.353C217.774 285.868 220.164 279.78 220.164 272.259C220.163 269.357 220.065 266.494 219.873 263.751Z" fill="#070707"/>
</svg>
